<svg width="20" height="20" viewBox="0 0 20 20" fill="none" xmlns="http://www.w3.org/2000/svg">
<g id="Discount">
<path id="Discount_2" fill-rule="evenodd" clip-rule="evenodd" d="M18.3991 7.14599L19.1193 7.86599C19.6895 8.42599 19.9996 9.18599 19.9996 9.98599C20.0096 10.786 19.6995 11.547 19.1393 12.116C19.1327 12.1233 19.126 12.1298 19.1193 12.1362C19.116 12.1394 19.1127 12.1427 19.1093 12.146L18.3991 12.856C18.119 13.136 17.9589 13.516 17.9589 13.917V14.946C17.9589 16.606 16.6084 17.957 14.9478 17.957H13.9174C13.5173 17.957 13.1372 18.116 12.8571 18.396L12.1368 19.116C11.5466 19.707 10.7763 19.996 10.006 19.996C9.23574 19.996 8.46546 19.707 7.87525 19.127L7.14498 18.396C6.86488 18.116 6.48474 17.957 6.0846 17.957H5.05423C3.39362 17.957 2.04313 16.606 2.04313 14.946V13.917C2.04313 13.516 1.88308 13.136 1.60298 12.846L0.882714 12.136C-0.28771 10.967 -0.297714 9.05599 0.87271 7.87699L1.60298 7.14599C1.88308 6.86599 2.04313 6.48599 2.04313 6.07599V5.05599C2.04313 3.39599 3.39362 2.04699 5.05423 2.04699H6.0846C6.48474 2.04699 6.86488 1.88599 7.14498 1.60599L7.86524 0.885989C9.03567 -0.293011 10.9464 -0.293011 12.1268 0.876989L12.8571 1.60599C13.1372 1.88599 13.5173 2.04699 13.9174 2.04699H14.9478C16.6084 2.04699 17.9589 3.39599 17.9589 5.05599V6.08699C17.9589 6.48599 18.119 6.86599 18.3991 7.14599ZM7.42509 13.446C7.66517 13.446 7.88525 13.356 8.04531 13.186L13.1872 8.04699C13.5273 7.70699 13.5273 7.14599 13.1872 6.80599C12.8471 6.46699 12.2969 6.46699 11.9567 6.80599L6.81486 11.946C6.47474 12.286 6.47474 12.846 6.81486 13.186C6.97492 13.356 7.195 13.446 7.42509 13.446ZM11.6966 12.566C11.6966 13.056 12.0868 13.446 12.577 13.446C13.0571 13.446 13.4473 13.056 13.4473 12.566C13.4473 12.087 13.0571 11.696 12.577 11.696C12.0868 11.696 11.6966 12.087 11.6966 12.566ZM7.43509 6.55599C7.91526 6.55599 8.3054 6.94599 8.3054 7.42599C8.3054 7.91699 7.91526 8.30599 7.43509 8.30599C6.95492 8.30599 6.55477 7.91699 6.55477 7.42599C6.55477 6.94599 6.95492 6.55599 7.43509 6.55599Z" fill="#C67C4E"/>
</g>
</svg>
